<svg width="110" height="77" viewBox="0 0 110 77" fill="none" xmlns="http://www.w3.org/2000/svg">
<path d="M56.8809 23.2632C56.7829 23.2632 56.6889 23.3022 56.6195 23.3717C56.5502 23.4411 56.5112 23.5353 56.5112 23.6335V24.4924C56.5112 24.5906 56.5502 24.6848 56.6195 24.7543C56.6889 24.8237 56.7829 24.8627 56.8809 24.8627C56.979 24.8627 57.073 24.8237 57.1424 24.7543C57.2117 24.6848 57.2507 24.5906 57.2507 24.4924V23.6351C57.2509 23.5863 57.2415 23.538 57.223 23.4929C57.2045 23.4478 57.1773 23.4068 57.1429 23.3722C57.1086 23.3376 57.0678 23.3102 57.0228 23.2915C56.9778 23.2728 56.9296 23.2632 56.8809 23.2632Z" fill="#0AB5DB" fill-opacity="0.5"/>
<path d="M55.914 22.4019H55.0562C54.9582 22.4019 54.8641 22.4409 54.7948 22.5103C54.7255 22.5798 54.6865 22.674 54.6865 22.7722C54.6865 22.8704 54.7255 22.9646 54.7948 23.0341C54.8641 23.1035 54.9582 23.1426 55.0562 23.1426H55.914C56.0121 23.1426 56.1061 23.1035 56.1755 23.0341C56.2448 22.9646 56.2837 22.8704 56.2837 22.7722C56.2837 22.674 56.2448 22.5798 56.1755 22.5103C56.1061 22.4409 56.0121 22.4019 55.914 22.4019Z" fill="#0AB5DB" fill-opacity="0.5"/>
<path d="M56.881 20.6226C56.8324 20.6225 56.7843 20.632 56.7395 20.6506C56.6946 20.6692 56.6539 20.6964 56.6195 20.7308C56.5852 20.7651 56.558 20.8059 56.5394 20.8509C56.5208 20.8958 56.5112 20.9439 56.5112 20.9925V21.8529C56.5112 21.9511 56.5502 22.0453 56.6195 22.1148C56.6889 22.1842 56.7829 22.2233 56.881 22.2233C56.979 22.2233 57.073 22.1842 57.1424 22.1148C57.2117 22.0453 57.2507 21.9511 57.2507 21.8529V20.9945C57.2509 20.9457 57.2415 20.8973 57.2231 20.8522C57.2046 20.8071 57.1774 20.766 57.143 20.7315C57.1087 20.6969 57.0678 20.6695 57.0229 20.6508C56.9779 20.6321 56.9296 20.6225 56.881 20.6226Z" fill="#0AB5DB" fill-opacity="0.5"/>
<path d="M58.7061 22.3428H57.8476C57.7496 22.3428 57.6556 22.3818 57.5863 22.4512C57.517 22.5206 57.478 22.6148 57.478 22.7129C57.478 22.8111 57.517 22.9052 57.5863 22.9747C57.6556 23.0441 57.7496 23.0831 57.8476 23.0831H58.7053C58.8033 23.0831 58.8973 23.0441 58.9666 22.9747C59.0359 22.9052 59.0749 22.8111 59.0749 22.7129C59.0749 22.6148 59.0359 22.5206 58.9666 22.4512C58.8973 22.3818 58.8033 22.3428 58.7053 22.3428H58.7061Z" fill="#0AB5DB" fill-opacity="0.5"/>
<path d="M45.2436 0C45.2436 0 45.7483 3.60663 41.543 3.52527C41.543 3.52527 45.1555 3.56401 45.0623 6.94634C45.0623 6.94634 45.3871 4.28418 48.7022 3.68953C48.7003 3.68759 45.8976 4.33144 45.2436 0Z" fill="#0AB5DB" fill-opacity="0.5"/>
<path d="M70.6949 63.0381H62.491C61.9903 63.04 61.509 62.8442 61.1515 62.4931C60.7939 62.142 60.5889 61.6638 60.5808 61.1623C60.5728 60.6608 60.7624 60.1764 61.1085 59.8139C61.4546 59.4515 61.9294 59.2403 62.4299 59.2261C62.4403 58.5943 62.6529 57.9824 63.0364 57.4806C63.4199 56.9789 63.9542 56.6137 64.5604 56.4389C65.1667 56.2641 65.813 56.2888 66.4042 56.5096C66.9953 56.7303 67.5001 57.1353 67.8442 57.6649C68.3617 57.589 68.8891 57.7059 69.3263 57.9934C69.7635 58.2809 70.0803 58.7191 70.2165 59.225H70.6964C71.2012 59.225 71.6853 59.4258 72.0423 59.7834C72.3992 60.1409 72.5997 60.6259 72.5997 61.1315C72.5997 61.6372 72.3992 62.1221 72.0423 62.4797C71.6853 62.8372 71.2012 63.0381 70.6964 63.0381H70.6949ZM62.491 59.7894C62.1356 59.7894 61.7948 59.9308 61.5435 60.1825C61.2922 60.4343 61.151 60.7757 61.151 61.1317C61.151 61.4877 61.2922 61.8291 61.5435 62.0809C61.7948 62.3326 62.1356 62.474 62.491 62.474H70.6949C71.0503 62.474 71.3911 62.3326 71.6424 62.0809C71.8937 61.8291 72.0349 61.4877 72.0349 61.1317C72.0349 60.7757 71.8937 60.4343 71.6424 60.1825C71.3911 59.9308 71.0503 59.7894 70.6949 59.7894H69.7478L69.7091 59.5515C69.677 59.3335 69.5995 59.1247 69.4819 58.9385C69.3642 58.7523 69.2089 58.5929 69.0259 58.4706C68.8429 58.3482 68.6364 58.2656 68.4196 58.2281C68.2028 58.1907 67.9806 58.1991 67.7673 58.253L67.56 58.3026L67.456 58.1163C67.1996 57.6543 66.7973 57.2906 66.3123 57.0824C65.8274 56.8741 65.2871 56.8331 64.7763 56.9657C64.2655 57.0982 63.8131 57.3969 63.49 57.8149C63.167 58.2328 62.9917 58.7464 62.9915 59.2749C62.9915 59.3447 62.9961 59.4136 63.0019 59.4814L63.0282 59.7879L62.491 59.7894Z" fill="#0AB5DB" fill-opacity="0.5"/>
<path d="M74.8403 38.332L78.8055 42.5934L109.03 29.9644L74.8403 38.332Z" fill="#0AB5DB"/>
<path d="M76.2508 24.2759L73.2656 28.7871L75.284 33.208L70.756 33.9781L66.7549 42.7774L110 29.6688L76.2508 24.2759Z" fill="#0AB5DB" fill-opacity="0.5"/>
<path d="M75.284 33.208L73.2656 28.7871L96.6894 29.8842L75.284 33.208Z" fill="#0AB5DB"/>
<path d="M73.0087 76.9286C72.6761 76.9286 72.3432 76.9265 72.0101 76.9224C71.9306 76.9216 71.8519 76.9051 71.7787 76.8738C71.7055 76.8425 71.6392 76.7971 71.5835 76.7401C71.5279 76.6831 71.484 76.6156 71.4544 76.5416C71.4248 76.4676 71.4101 76.3885 71.4111 76.3088C71.4102 76.2285 71.4256 76.149 71.4562 76.0748C71.4869 76.0007 71.5322 75.9336 71.5895 75.8775C71.6468 75.8214 71.7149 75.7776 71.7895 75.7485C71.8642 75.7195 71.944 75.706 72.0241 75.7087C73.5934 75.7265 75.1516 75.7021 76.8613 75.6312H76.8873C77.0465 75.6301 77.1998 75.6918 77.314 75.803C77.4282 75.9142 77.4941 76.066 77.4975 76.2255C77.5008 76.385 77.4413 76.5394 77.3319 76.6553C77.2225 76.7712 77.072 76.8393 76.9128 76.8449C75.5434 76.9015 74.2656 76.9286 73.0087 76.9286ZM67.1527 76.6892C67.1349 76.6895 67.1171 76.6889 67.0994 76.6873C65.4302 76.5439 63.7874 76.3297 62.2176 76.05C62.1392 76.036 62.0643 76.0067 61.9972 75.9637C61.9301 75.9207 61.8721 75.8649 61.8266 75.7995C61.781 75.734 61.7488 75.6602 61.7318 75.5823C61.7147 75.5044 61.7132 75.4239 61.7272 75.3453C61.7577 75.1879 61.8482 75.0486 61.9795 74.9569C62.1109 74.8652 62.2727 74.8283 62.4307 74.8541C63.9637 75.1276 65.5702 75.3372 67.2042 75.4774C67.3596 75.4911 67.5037 75.5643 67.6066 75.6817C67.7096 75.7991 67.7633 75.9518 67.7567 76.1079C67.7501 76.2641 67.6836 76.4116 67.5711 76.5199C67.4586 76.6282 67.3087 76.6888 67.1527 76.6892ZM57.5872 74.937C57.5268 74.937 57.4668 74.9276 57.4093 74.9091C55.8293 74.426 54.2853 73.8315 52.789 73.1302C52.6435 73.0618 52.5311 72.9383 52.4765 72.7868C52.4219 72.6354 52.4296 72.4684 52.498 72.3227C52.5663 72.177 52.6896 72.0644 52.8408 72.0097C52.9919 71.955 53.1586 71.9628 53.3041 72.0312C54.749 72.7077 56.2395 73.2817 57.7647 73.7489C57.9035 73.7916 58.0225 73.8827 58.0999 74.0058C58.1773 74.1288 58.208 74.2756 58.1865 74.4195C58.165 74.5633 58.0927 74.6947 57.9827 74.7897C57.8728 74.8846 57.7324 74.9369 57.5872 74.937ZM48.8083 70.795C48.6888 70.7951 48.572 70.7596 48.4726 70.6931C47.0956 69.7723 45.7916 68.7463 44.5724 67.6242C44.5138 67.5702 44.4665 67.5052 44.433 67.4328C44.3995 67.3605 44.3806 67.2823 44.3773 67.2026C44.374 67.123 44.3864 67.0434 44.4138 66.9686C44.4412 66.8937 44.4831 66.825 44.537 66.7663C44.5909 66.7077 44.6558 66.6602 44.728 66.6267C44.8002 66.5932 44.8783 66.5742 44.9579 66.5709C45.0374 66.5676 45.1168 66.5801 45.1915 66.6075C45.2663 66.635 45.3349 66.6769 45.3934 66.7309C46.5662 67.81 47.8204 68.7969 49.1448 69.6828C49.2531 69.7551 49.3353 69.8605 49.3792 69.9832C49.4231 70.106 49.4264 70.2396 49.3886 70.3644C49.3507 70.4892 49.2738 70.5984 49.1691 70.676C49.0645 70.7535 48.9377 70.7953 48.8075 70.795H48.8083ZM41.6649 64.2194C41.5737 64.2195 41.4837 64.1991 41.4015 64.1596C41.3193 64.1201 41.247 64.0625 41.19 63.9912C40.1588 62.6931 39.2287 61.3176 38.4078 59.8767C38.3312 59.737 38.3125 59.5727 38.3558 59.4193C38.399 59.2659 38.5007 59.1356 38.639 59.0567C38.7773 58.9777 38.941 58.9564 39.0948 58.9972C39.2486 59.0381 39.3803 59.1379 39.4613 59.2751C40.2512 60.6613 41.1465 61.9845 42.139 63.2331C42.2104 63.3225 42.255 63.4302 42.2678 63.5438C42.2807 63.6575 42.2611 63.7725 42.2115 63.8755C42.1619 63.9786 42.0842 64.0655 41.9875 64.1262C41.8907 64.1869 41.7787 64.2189 41.6645 64.2186L41.6649 64.2194ZM36.8636 55.7743C36.7403 55.7741 36.6201 55.7364 36.5187 55.6662C36.4174 55.596 36.3398 55.4965 36.2962 55.3811C35.7097 53.8267 35.2539 52.226 34.9338 50.5956C34.9075 50.4394 34.9432 50.2791 35.0332 50.1489C35.1233 50.0187 35.2605 49.9289 35.4157 49.8986C35.5709 49.8683 35.7318 49.8999 35.864 49.9866C35.9963 50.0734 36.0895 50.2085 36.1237 50.3632C36.4309 51.9269 36.8682 53.4622 37.4309 54.953C37.4655 55.0449 37.4773 55.1439 37.4653 55.2414C37.4533 55.339 37.4179 55.4321 37.3622 55.513C37.3064 55.5938 37.2319 55.6599 37.1451 55.7056C37.0583 55.7513 36.9617 55.7753 36.8636 55.7754V55.7743ZM34.9299 46.2467C34.776 46.2464 34.628 46.1876 34.5158 46.0821C34.4036 45.9765 34.3357 45.8322 34.3258 45.6784C34.2628 44.6863 34.2314 43.6415 34.2314 42.575V42.329C34.2335 41.8014 34.2429 41.272 34.2597 40.7407C34.2649 40.5832 34.331 40.4339 34.4441 40.3244C34.5572 40.2149 34.7084 40.1537 34.8657 40.1538H34.8854C35.046 40.1591 35.198 40.228 35.3079 40.3455C35.4177 40.463 35.4765 40.6193 35.4713 40.7802C35.4548 41.2983 35.4453 41.8148 35.4427 42.3298V42.5738C35.4427 43.6155 35.4744 44.6336 35.5355 45.6002C35.5408 45.6798 35.5303 45.7596 35.5046 45.8351C35.479 45.9107 35.4387 45.9804 35.3861 46.0403C35.3335 46.1002 35.2696 46.1491 35.1981 46.1842C35.1266 46.2193 35.0488 46.2399 34.9693 46.2448C34.9562 46.2456 34.943 46.2456 34.9295 46.2456L34.9299 46.2467Z" fill="#0AB5DB"/>
<path d="M40.0256 36.6173C39.1 36.6173 38.1894 36.6061 37.2937 36.5836C37.1354 36.5781 36.9855 36.5107 36.8761 36.3958C36.7668 36.2809 36.7067 36.1277 36.7088 35.969C36.7109 35.8103 36.7749 35.6587 36.8872 35.5467C36.9995 35.4347 37.1511 35.3712 37.3096 35.3699H37.3254C38.8902 35.4094 40.5043 35.4137 42.1678 35.3827C42.2486 35.3762 42.3298 35.387 42.4061 35.4142C42.4825 35.4415 42.5522 35.4847 42.6106 35.5409C42.6691 35.5971 42.715 35.6651 42.7453 35.7404C42.7757 35.8157 42.7897 35.8966 42.7865 35.9777C42.7884 36.0575 42.7746 36.137 42.7457 36.2114C42.7168 36.2859 42.6735 36.3538 42.6183 36.4115C42.5631 36.4691 42.497 36.5152 42.424 36.5471C42.3509 36.579 42.2722 36.5962 42.1925 36.5975C41.4608 36.6107 40.7385 36.6173 40.0256 36.6173ZM47.0461 36.4135C46.8879 36.414 46.7358 36.3526 46.6223 36.2422C46.5088 36.1319 46.4429 35.9815 46.4387 35.8231C46.4344 35.6648 46.4922 35.5111 46.5996 35.3948C46.7071 35.2785 46.8556 35.209 47.0136 35.201C48.581 35.1119 50.2092 34.9945 51.8528 34.8492C52.0129 34.8351 52.1721 34.8852 52.2953 34.9886C52.4185 35.0919 52.4957 35.2401 52.5099 35.4005C52.524 35.5609 52.474 35.7203 52.3708 35.8438C52.2676 35.9672 52.1196 36.0445 51.9595 36.0587C50.3028 36.2051 48.6622 36.3248 47.0805 36.4127C47.0696 36.4135 47.058 36.4135 47.0461 36.4135ZM32.4464 36.336C32.4305 36.336 32.4147 36.336 32.398 36.336C30.7107 36.2043 29.069 36.0261 27.5178 35.8022C27.439 35.791 27.3632 35.7643 27.2948 35.7237C27.2263 35.683 27.1665 35.6293 27.1187 35.5655C27.071 35.5017 27.0363 35.4291 27.0166 35.3519C26.9969 35.2747 26.9925 35.1943 27.0038 35.1154C27.0289 34.9571 27.1145 34.8148 27.2425 34.7187C27.3705 34.6226 27.5308 34.5802 27.6895 34.6005C29.2148 34.819 30.831 34.9957 32.4928 35.1243C32.6497 35.1355 32.796 35.2074 32.901 35.3247C33.0059 35.442 33.0612 35.5956 33.0552 35.753C33.0492 35.9105 32.9823 36.0594 32.8687 36.1683C32.7551 36.2772 32.6036 36.3377 32.4464 36.3368V36.336ZM56.7496 35.5613C56.5954 35.5606 56.4472 35.5009 56.3353 35.3946C56.2234 35.2882 56.1562 35.1431 56.1474 34.9888C56.1386 34.8345 56.1889 34.6827 56.288 34.5642C56.3871 34.4458 56.5276 34.3697 56.6808 34.3514C58.2551 34.1665 59.86 33.9576 61.4957 33.7246C61.6515 33.7084 61.8075 33.7533 61.931 33.8498C62.0545 33.9464 62.1359 34.087 62.1581 34.2424C62.1803 34.3977 62.1416 34.5556 62.0501 34.683C61.9586 34.8104 61.8215 34.8973 61.6674 34.9256C60.0207 35.1606 58.4051 35.3707 56.8208 35.5558C56.7972 35.5591 56.7734 35.5607 56.7496 35.5609V35.5613ZM22.8097 34.9379C22.7648 34.9378 22.7201 34.9329 22.6763 34.9232C21.5045 34.6594 20.3617 34.3631 19.2815 34.0407C18.8218 33.9033 18.3696 33.7613 17.9248 33.6146C17.7749 33.562 17.6516 33.4525 17.5815 33.3097C17.5114 33.1669 17.5 33.0022 17.5499 32.8511C17.5998 32.7 17.7069 32.5746 17.8482 32.5018C17.9895 32.4291 18.1537 32.4148 18.3054 32.4621C18.7385 32.6055 19.179 32.7441 19.6269 32.8782C20.6815 33.1927 21.7964 33.4821 22.9408 33.7393C23.0871 33.7713 23.2164 33.8564 23.3039 33.9781C23.3913 34.0999 23.4307 34.2498 23.4144 34.3989C23.3981 34.548 23.3274 34.6858 23.2157 34.7857C23.1041 34.8857 22.9594 34.9407 22.8097 34.9403V34.9379ZM13.6054 31.819C13.5137 31.8189 13.4232 31.7979 13.3409 31.7575C11.8461 31.0374 10.4146 30.1924 9.06162 29.2313C8.99684 29.1849 8.94181 29.1262 8.89967 29.0586C8.85752 28.9909 8.8291 28.9156 8.81601 28.837C8.80292 28.7583 8.80542 28.6779 8.82338 28.6002C8.84133 28.5225 8.87439 28.4491 8.92065 28.3842C8.96692 28.3193 9.02549 28.2642 9.09303 28.222C9.16056 28.1798 9.23573 28.1513 9.31426 28.1382C9.39278 28.1251 9.47311 28.1276 9.55066 28.1456C9.62821 28.1636 9.70147 28.1967 9.76625 28.243C11.0638 29.164 12.4364 29.974 13.8695 30.6646C13.9929 30.7247 14.0923 30.8249 14.1515 30.9488C14.2107 31.0727 14.2262 31.2131 14.1956 31.347C14.165 31.4809 14.0899 31.6005 13.9827 31.6862C13.8756 31.772 13.7425 31.8188 13.6054 31.819ZM34.4733 31.2767C34.3126 31.2766 34.1585 31.2126 34.0449 31.0988C33.9312 30.985 33.8674 30.8306 33.8673 30.6697V30.4531C33.8673 28.9221 33.8061 27.3667 33.6847 25.8288C33.6749 25.6696 33.7279 25.5129 33.8323 25.3926C33.9368 25.2722 34.0842 25.1977 34.243 25.1853C34.4017 25.1728 34.5589 25.2234 34.6808 25.326C34.8027 25.4286 34.8794 25.5751 34.8944 25.7339C35.0166 27.3024 35.0789 28.8907 35.0789 30.4531V30.6685C35.079 30.7483 35.0634 30.8274 35.0329 30.9012C35.0025 30.975 34.9578 31.042 34.9014 31.0985C34.845 31.155 34.7781 31.1997 34.7044 31.2303C34.6308 31.2608 34.5518 31.2764 34.4721 31.2763L34.4733 31.2767ZM5.76817 26.1275C5.68391 26.1276 5.60055 26.1101 5.52343 26.076C5.44631 26.042 5.37714 25.9922 5.32033 25.9299C4.19139 24.6934 3.2133 23.3268 2.40666 21.8588C2.36629 21.7887 2.3403 21.7113 2.3302 21.631C2.3201 21.5507 2.3261 21.4692 2.34784 21.3913C2.36959 21.3134 2.40665 21.2406 2.45685 21.1772C2.50705 21.1139 2.56937 21.0612 2.64017 21.0222C2.71097 20.9833 2.78882 20.9589 2.86915 20.9505C2.94948 20.9421 3.03068 20.9498 3.10799 20.9732C3.1853 20.9967 3.25715 21.0353 3.31935 21.0869C3.38155 21.1386 3.43283 21.2021 3.47019 21.2738C4.23009 22.6577 5.15186 23.9459 6.21601 25.1113C6.29537 25.1982 6.34776 25.3064 6.3668 25.4226C6.38583 25.5388 6.37068 25.6581 6.32319 25.7658C6.27571 25.8736 6.19794 25.9651 6.09939 26.0294C6.00083 26.0936 5.88575 26.1277 5.76817 26.1275ZM33.6928 21.5396C33.55 21.5395 33.4119 21.4889 33.3026 21.3968C33.1934 21.3047 33.1201 21.1769 33.0957 21.036C32.8301 19.4523 32.4727 17.8855 32.0252 16.3435C31.9799 16.1891 31.9977 16.023 32.0747 15.8818C32.1516 15.7406 32.2814 15.6357 32.4356 15.5904C32.5897 15.545 32.7554 15.5628 32.8964 15.6399C33.0374 15.717 33.1421 15.847 33.1874 16.0014C33.6485 17.5882 34.0172 19.2006 34.2915 20.8303C34.3184 20.9891 34.2814 21.1522 34.1886 21.2838C34.0957 21.4153 33.9546 21.5047 33.7961 21.5322C33.7615 21.5375 33.7266 21.5398 33.6917 21.5392L33.6928 21.5396ZM1.11884 17.6598C0.986231 17.6599 0.857284 17.6163 0.751791 17.5358C0.646298 17.4553 0.570088 17.3424 0.534863 17.2143C0.459836 16.9416 0.389451 16.6666 0.323706 16.3892C0.112567 15.5075 0.00394416 14.6043 5.79273e-06 13.6976C-0.000545401 13.1763 0.0382399 12.6557 0.116028 12.1403C0.14008 11.981 0.226301 11.8379 0.355725 11.7423C0.41981 11.695 0.492574 11.6608 0.56986 11.6416C0.647145 11.6224 0.727439 11.6187 0.806158 11.6307C0.884878 11.6426 0.960481 11.6699 1.02865 11.7111C1.09682 11.7523 1.15622 11.8066 1.20346 11.8708C1.25071 11.935 1.28486 12.0078 1.30399 12.0853C1.32311 12.1627 1.32682 12.2431 1.31491 12.322C1.24645 12.7773 1.21219 13.2371 1.21242 13.6976C1.21665 14.5101 1.31463 15.3195 1.50441 16.1095C1.56667 16.3722 1.6328 16.6333 1.70396 16.8901C1.72535 16.9669 1.73138 17.0473 1.72171 17.1264C1.71205 17.2056 1.68688 17.2821 1.64765 17.3515C1.60841 17.421 1.55589 17.4819 1.49308 17.531C1.43028 17.58 1.35843 17.6162 1.28165 17.6374C1.22861 17.652 1.17386 17.6596 1.11884 17.6598ZM30.8816 12.2143C30.7673 12.2142 30.6553 12.1818 30.5586 12.1208C30.4618 12.0599 30.3843 11.9727 30.3348 11.8695C29.6626 10.4386 28.8279 9.09004 27.8473 7.85067C27.7466 7.72507 27.6998 7.56453 27.7172 7.40437C27.7347 7.24421 27.8149 7.09756 27.9403 6.99666C28.0657 6.89577 28.226 6.8489 28.3859 6.86638C28.5458 6.88385 28.6922 6.96423 28.7929 7.08983C29.8308 8.40206 30.715 9.82925 31.4281 11.3434C31.4723 11.436 31.4923 11.5384 31.4864 11.6408C31.4805 11.7433 31.4488 11.8426 31.3942 11.9295C31.3397 12.0165 31.2641 12.0881 31.1745 12.1379C31.0849 12.1877 30.9841 12.214 30.8816 12.2143ZM2.62208 8.40813C2.48946 8.40871 2.3604 8.36525 2.25506 8.28455C2.19149 8.23629 2.13805 8.17594 2.09781 8.10695C2.05756 8.03797 2.0313 7.9617 2.02052 7.88253C2.00974 7.80337 2.01466 7.72284 2.035 7.64558C2.05534 7.56832 2.09069 7.49584 2.13904 7.43229C3.18551 6.08648 4.47265 4.94729 5.93486 4.07282C6.00278 4.03011 6.07848 4.00133 6.15758 3.98812C6.23668 3.97492 6.31761 3.97756 6.39568 3.9959C6.47376 4.01424 6.54743 4.04791 6.61242 4.09496C6.67742 4.14201 6.73246 4.2015 6.77434 4.27C6.81623 4.3385 6.84414 4.41464 6.85646 4.49401C6.86877 4.57339 6.86525 4.65442 6.84609 4.73242C6.82693 4.81043 6.79251 4.88385 6.74484 4.94844C6.69716 5.01302 6.63717 5.0675 6.56833 5.10871C5.23414 5.90492 4.05939 6.94269 3.10395 8.16911C3.04751 8.24352 2.97463 8.30382 2.89103 8.34529C2.80742 8.38676 2.71537 8.40827 2.62208 8.40813ZM24.7488 4.79763C24.631 4.79787 24.5158 4.76353 24.4174 4.69885C23.1157 3.8478 21.679 3.22488 20.1687 2.85679C20.0125 2.81826 19.8779 2.71915 19.7947 2.58126C19.7114 2.44337 19.6862 2.278 19.7247 2.12152C19.7632 1.96504 19.8621 1.83028 19.9998 1.74688C20.1374 1.66347 20.3025 1.63827 20.4587 1.67679C22.1028 2.07851 23.6668 2.75734 25.0837 3.68426C25.1931 3.75584 25.2764 3.86093 25.3213 3.98384C25.3661 4.10675 25.3701 4.24089 25.3326 4.36626C25.2951 4.49162 25.2181 4.60147 25.1132 4.67943C25.0083 4.75738 24.881 4.79925 24.7503 4.79879L24.7488 4.79763ZM10.7049 3.24806C10.559 3.24811 10.418 3.19552 10.3078 3.09992C10.1975 3.00431 10.1253 2.8721 10.1045 2.72752C10.0836 2.58293 10.1155 2.43566 10.1942 2.31269C10.2729 2.18973 10.3933 2.0993 10.5331 2.05799C12.0867 1.60234 13.6841 1.31314 15.2985 1.19526L15.481 1.18945C15.639 1.19551 15.7893 1.25944 15.9034 1.36912C16.0174 1.4788 16.0873 1.62661 16.0998 1.78449C16.1016 1.8643 16.0877 1.94368 16.0587 2.01808C16.0298 2.09248 15.9865 2.16042 15.9313 2.21801C15.8762 2.2756 15.8102 2.3217 15.7371 2.35368C15.6641 2.38565 15.5855 2.40286 15.5058 2.40432L15.3739 2.40935C13.8507 2.52036 12.3435 2.79306 10.8777 3.22288C10.8217 3.24007 10.7635 3.2492 10.7049 3.25V3.24806Z" fill="#0AB5DB"/>
</svg>
